<?xml version="1.0" standalone="no"?>
<!DOCTYPE svg PUBLIC "-//W3C//DTD SVG 20010904//EN"
 "http://www.w3.org/TR/2001/REC-SVG-20010904/DTD/svg10.dtd">
<svg version="1.0" xmlns="http://www.w3.org/2000/svg"
 width="200.000000pt" height="200.000000pt" viewBox="0 0 200.000000 200.000000"
 preserveAspectRatio="xMidYMid meet">
<metadata>
Created by potrace 1.14, written by Peter Selinger 2001-2017
</metadata>
<g transform="translate(0.000000,200.000000) scale(0.100000,-0.100000)"
fill="#000000" stroke="none">
<path d="M840 1440 c-12 -7 -12 -13 -4 -27 23 -37 63 -18 48 22 -7 17 -22 19
-44 5z"/>
<path d="M977 1443 c-13 -12 -7 -44 8 -49 24 -10 47 14 34 37 -10 19 -30 25
-42 12z"/>
<path d="M1114 1436 c-9 -24 4 -48 23 -44 12 2 18 12 18 28 0 29 -32 41 -41
16z"/>
<path d="M860 1291 c-14 -16 -37 -42 -53 -58 l-27 -30 112 -112 112 -112 88
93 c137 143 132 130 64 194 l-57 54 -107 -1 c-104 0 -108 -1 -132 -28z m167
-28 l-27 -28 -27 28 -28 27 55 0 55 0 -28 -27z m-79 -38 c-3 -4 -27 -5 -52 -3
l-46 3 25 28 26 27 26 -25 c15 -13 24 -27 21 -30z m178 20 l25 -25 -51 0 c-54
0 -59 4 -33 32 21 24 29 23 59 -7z m-207 -108 l23 -42 -41 40 c-44 42 -51 56
-23 49 9 -3 28 -24 41 -47z m133 29 c-6 -30 -44 -96 -52 -91 -7 5 -60 93 -60
101 0 5 42 9 80 8 28 -1 34 -4 32 -18z m54 -24 l-37 -37 17 37 c15 33 40 51
54 41 2 -2 -13 -20 -34 -41z"/>
<path d="M654 969 c-9 -15 12 -33 30 -26 9 4 16 13 16 22 0 17 -35 21 -46 4z"/>
<path d="M370 955 c0 -3 7 -13 15 -21 11 -11 15 -38 15 -100 0 -66 -3 -86 -15
-90 -8 -4 -15 -10 -15 -15 0 -14 127 -10 165 5 83 35 93 152 17 202 -25 17
-182 33 -182 19z m156 -38 c24 -21 28 -31 28 -81 0 -43 -5 -61 -19 -75 -23
-22 -82 -34 -91 -19 -4 5 -7 52 -8 104 l-2 94 32 0 c20 0 44 -9 60 -23z"/>
<path d="M658 892 c-29 -3 -39 -22 -13 -22 24 0 21 -125 -2 -139 -14 -8 -8
-10 30 -11 47 0 47 0 34 23 -9 13 -13 46 -12 85 1 34 0 64 -4 65 -3 2 -18 1
-33 -1z"/>
<path d="M790 891 c-29 -8 -36 -54 -9 -59 11 -2 15 4 15 20 -1 33 41 38 53 6
11 -28 3 -37 -35 -44 -42 -7 -73 -30 -69 -51 2 -10 4 -21 4 -25 2 -20 42 -28
74 -15 28 12 36 12 52 1 21 -16 41 -8 26 10 -6 7 -11 38 -12 70 -2 54 -17 86
-39 86 -5 0 -14 2 -22 4 -7 2 -24 1 -38 -3z m50 -137 c-14 -16 -46 -19 -55 -4
-10 16 13 48 37 52 27 4 37 -24 18 -48z"/>
<path d="M950 889 c-23 -9 -23 -11 -7 -20 23 -13 24 -110 1 -133 -14 -15 -11
-16 33 -16 39 1 45 3 33 13 -20 16 -24 112 -5 127 8 6 24 10 37 8 21 -3 23 -9
26 -61 2 -35 -2 -64 -9 -73 -10 -12 -5 -14 30 -14 22 0 41 5 41 10 0 6 -4 10
-10 10 -6 0 -10 27 -10 60 0 55 2 60 25 66 14 3 31 1 38 -5 19 -15 19 -102 -1
-123 -14 -17 -12 -18 34 -18 34 0 44 3 34 10 -9 6 -15 29 -17 66 -3 73 -7 82
-38 94 -19 7 -33 6 -52 -4 -22 -11 -30 -11 -54 1 -25 13 -33 13 -58 0 -22 -11
-30 -11 -37 -1 -7 9 -16 10 -34 3z"/>
<path d="M1333 893 c-13 -2 -32 -16 -43 -30 -45 -58 -9 -144 62 -146 37 -1 83
27 72 44 -2 5 -13 0 -24 -11 -31 -31 -90 -4 -90 42 0 15 9 18 54 18 56 0 67 8
58 43 -4 15 -54 50 -64 46 -2 -1 -13 -4 -25 -6z m47 -34 c14 -25 10 -30 -23
-33 -38 -5 -51 7 -38 33 15 27 47 27 61 0z"/>
<path d="M1475 855 c19 -20 35 -44 35 -55 0 -10 -17 -32 -37 -49 l-38 -31 45
0 c33 0 41 3 30 10 -11 7 -12 14 -4 27 16 26 31 27 44 2 10 -17 9 -23 -1 -30
-9 -6 3 -9 34 -9 26 0 47 5 47 10 0 6 -6 10 -12 10 -7 0 -25 18 -40 39 l-27
38 35 37 35 36 -38 0 c-26 0 -34 -3 -24 -9 11 -7 11 -12 -2 -31 l-15 -21 -22
30 c-15 23 -29 31 -51 31 l-30 0 36 -35z"/>
</g>
</svg>
